# xmcd CD database file generated by grip 2.1
# 
# Track frame offsets:
#       150
#       14785
#       39682
#       59510
#       71935
#       102050
#       124917
#       136357
#       157090
#       171035
#       195910
#       212312
# 
# Disc length: 2986 seconds
# 
# Revision: 3
# Processed by: cddbd v1.4b41PL1 Copyright (c) Steve Scherf et al.
# Submitted via: grip 2.1
# 
DISCID=ae0ba80c
DTITLE=Congo Norvell - Music to Remember Him By
DYEAR=1900
DGENRE=
TTITLE0=Golden Gates
TTITLE1=Drift Away
TTITLE2=The Chosen One
TTITLE3=Mercy Mine
TTITLE4=Rock My Child
TTITLE5=My Midnight
TTITLE6=Long Time Woman
TTITLE7=Shelter
TTITLE8=Lola
TTITLE9=Dried Flowers
TTITLE10=Love
TTITLE11=Lonesome Valley
EXTD=
EXTT0=
EXTT1=
EXTT2=
EXTT3=
EXTT4=
EXTT5=
EXTT6=
EXTT7=
EXTT8=
EXTT9=
EXTT10=
EXTT11=
PLAYORDER=
